<svg width="32" height="48" viewBox="0 0 32 48" fill="none" xmlns="http://www.w3.org/2000/svg">
<path fill-rule="evenodd" clip-rule="evenodd" d="M14.632 0.61326C5.54063 1.17888 0.789844 6.32732 0.375 15.6375H9.54609C9.66094 12.4125 11.4609 10.0015 14.8125 9.64607C18.1023 9.29685 21.2234 10.0804 22.1688 12.3297C23.1898 14.7594 20.8977 17.5828 19.8078 18.7679C17.7906 20.9656 14.5141 22.5687 12.8156 24.9398C11.1508 27.2633 10.8547 30.3203 10.7266 34.0617H18.8094C18.9227 31.6695 19.082 29.3781 20.1703 27.8914C21.9406 25.4758 24.5844 24.3437 26.8 22.4359C28.9164 20.6125 31.143 18.4148 31.5211 15.0133C32.6562 4.83279 24.3461 0.00700951 14.632 0.61326Z" fill="black"/>
<path d="M14.8398 47.4374C17.6582 47.4374 19.9429 45.1873 19.9429 42.4116C19.9429 39.636 17.6582 37.3859 14.8398 37.3859C12.0214 37.3859 9.73669 39.636 9.73669 42.4116C9.73669 45.1873 12.0214 47.4374 14.8398 47.4374Z" fill="black"/>
</svg>
