<svg width="51" height="36" viewBox="0 0 51 36" fill="none" xmlns="http://www.w3.org/2000/svg">
<path d="M14.31 29.441C13.6981 29.4419 13.1072 29.2176 12.65 28.811L0 17.566L13.3525 5.696C13.8502 5.27023 14.4951 5.05679 15.1485 5.10156C15.802 5.14633 16.4117 5.44575 16.8467 5.93542C17.2817 6.42509 17.5071 7.06591 17.4746 7.72007C17.442 8.37422 17.154 8.98947 16.6725 9.4335L7.525 17.566L15.97 25.071C16.3494 25.4076 16.6174 25.8517 16.7385 26.3443C16.8596 26.8369 16.8279 27.3546 16.6478 27.8288C16.4677 28.3029 16.1476 28.7111 15.7301 28.9991C15.3125 29.287 14.8172 29.4411 14.31 29.441ZM36.6725 29.436L50.025 17.566L37.375 6.321C36.8794 5.88074 36.2292 5.6554 35.5674 5.69455C34.9056 5.73369 34.2865 6.03413 33.8462 6.52975C33.406 7.02537 33.1806 7.67559 33.2198 8.33736C33.2589 8.99913 33.5594 9.61824 34.055 10.0585L42.5 17.566L33.3525 25.696C32.8565 26.1363 32.5558 26.7555 32.5164 27.4175C32.477 28.0795 32.7022 28.73 33.1425 29.226C33.5828 29.722 34.202 30.0227 34.864 30.0621C35.526 30.1015 36.1765 29.8763 36.6725 29.436ZM24.9775 32.9785L29.9775 2.9785C30.0414 2.65063 30.039 2.31328 29.9704 1.98636C29.9018 1.65944 29.7683 1.3496 29.5779 1.07512C29.3875 0.800644 29.1441 0.567107 28.8619 0.388303C28.5797 0.209498 28.2646 0.0890535 27.9351 0.0340829C27.6056 -0.0208876 27.2685 -0.00926933 26.9435 0.0682519C26.6186 0.145773 26.3125 0.287625 26.0433 0.485428C25.7742 0.683231 25.5474 0.932974 25.3763 1.2199C25.2053 1.50684 25.0935 1.82513 25.0475 2.156L20.0475 32.156C19.9836 32.4839 19.986 32.8212 20.0546 33.1481C20.1232 33.4751 20.2567 33.7849 20.4471 34.0594C20.6375 34.3339 20.8809 34.5674 21.1631 34.7462C21.4453 34.925 21.7604 35.0454 22.0899 35.1004C22.4194 35.1554 22.7565 35.1438 23.0815 35.0662C23.4064 34.9887 23.7125 34.8469 23.9817 34.6491C24.2508 34.4513 24.4776 34.2015 24.6487 33.9146C24.8197 33.6277 24.9315 33.3094 24.9775 32.9785Z" fill="black"/>
</svg>
