<svg width="50" height="50" viewBox="0 0 50 50" fill="none" xmlns="http://www.w3.org/2000/svg">
<path d="M43.2693 9.80392C43.2693 8.98693 42.9889 8.29248 42.428 7.72059C41.8671 7.14869 41.186 6.86275 40.3847 6.86275C39.5834 6.86275 38.9023 7.14869 38.3414 7.72059C37.7805 8.29248 37.5001 8.98693 37.5001 9.80392C37.5001 10.6209 37.7805 11.3154 38.3414 11.8873C38.9023 12.4592 39.5834 12.7451 40.3847 12.7451C41.186 12.7451 41.8671 12.4592 42.428 11.8873C42.9889 11.3154 43.2693 10.6209 43.2693 9.80392ZM50.0001 0.980392C50.0001 6.06618 49.2439 10.4626 47.7315 14.1697C46.219 17.8768 43.68 21.5584 40.1143 25.2145C38.4917 26.8484 36.5386 28.6458 34.2549 30.6066L33.6539 42.2181C33.6139 42.5449 33.4536 42.8105 33.1732 43.0147L21.6347 49.8775C21.4945 49.9592 21.3342 50 21.1539 50C20.9136 50 20.6832 49.9081 20.4628 49.7243L18.5398 47.7635C18.2793 47.4775 18.1992 47.1507 18.2994 46.7831L20.8535 38.3272L12.4099 29.7181L4.11668 32.3223C4.05658 32.3427 3.96644 32.3529 3.84624 32.3529C3.5658 32.3529 3.33543 32.261 3.15514 32.0772L1.23206 30.1164C0.891517 29.7283 0.841437 29.3301 1.08182 28.9216L7.81259 17.1569C8.01291 16.8709 8.27333 16.7075 8.59384 16.6667L19.9821 16.0539C21.9051 13.7255 23.668 11.7341 25.2705 10.0797C29.0366 6.26021 32.6223 3.62541 36.0277 2.17525C39.4332 0.725082 43.7501 0 48.9785 0C49.2589 0 49.4993 0.097018 49.6996 0.291054C49.8999 0.48509 50.0001 0.714869 50.0001 0.980392Z" fill="black"/>
</svg>
